<svg xmlns="http://www.w3.org/2000/svg"  viewBox="0 0 333333 333333" shape-rendering="geometricPrecision" text-rendering="geometricPrecision" image-rendering="optimizeQuality" fill-rule="evenodd" clip-rule="evenodd"><path d="M166667 0c46023 0 87690 18655 117851 48816s48816 71828 48816 117851-18655 87690-48816 117851-71828 48816-117851 48816-87690-18655-117851-48816S0 212690 0 166667 18655 78977 48816 48816 120644 0 166667 0zm-18386 141742h26667v13671l386 1c3714-6663 12794-13671 26335-13671 28159-1 33367 17523 33367 40319v46437l-27811 1v-41165c0-9813-204-22446-14460-22446-14481 0-16699 10682-16699 21731v41880h-27786v-86757zm-19280-24100c0 7983-6478 14461-14461 14461-7982 0-14463-6478-14463-14461s6480-14460 14463-14460 14461 6478 14461 14460zm-28924 24100h28924v86757h-28924v-86757zm173218-81703c-27287-27287-64987-44165-106628-44165-41642 0-79341 16878-106628 44165s-44165 64987-44165 106628c0 41642 16878 79341 44165 106628s64987 44165 106628 44165c41642 0 79341-16878 106628-44165s44165-64987 44165-106628c0-41642-16878-79341-44165-106628z" fill="#0077b5" fill-rule="nonzero"/></svg>