<svg xmlns="http://www.w3.org/2000/svg"  viewBox="0 0 333333 333333" shape-rendering="geometricPrecision" text-rendering="geometricPrecision" image-rendering="optimizeQuality" fill-rule="evenodd" clip-rule="evenodd"><path d="M166667 0c46023 0 87690 18655 117851 48816s48816 71828 48816 117851-18655 87690-48816 117851-71828 48816-117851 48816-87690-18655-117851-48816S0 212690 0 166667 18655 78977 48816 48816 120644 0 166667 0zm77224 118769c-5678 2539-11795 4226-18182 4979 6544-3919 11549-10130 13937-17524-6117 3617-12914 6270-20117 7690-5792-6154-14018-9979-23131-9979-17497 0-31664 14175-31664 31661 0 2468 274 4882 810 7211-26328-1335-49670-13939-65294-33115-2803 4835-4286 10333-4286 15924v4c0 10980 5574 20691 14081 26354-5191-154-10073-1602-14360-3947v396c0 15355 10914 28167 25416 31063-2657 722-5461 1120-8351 1120-2046 0-4019-211-5980-567 4050 12575 15743 21743 29589 22009-10857 8506-24492 13570-39357 13570-2566 0-5065-157-7561-456 14052 9016 30698 14238 48580 14238 58261 0 90147-48281 90147-90144 0-1391-31-2739-89-4102 6188-4426 11552-10013 15799-16372l15-15-3 2zm29405-58731c-27287-27287-64987-44165-106628-44165-41642 0-79341 16878-106628 44165s-44165 64987-44165 106628c0 41642 16878 79341 44165 106628s64987 44165 106628 44165c41642 0 79341-16878 106628-44165s44165-64987 44165-106628c0-41642-16878-79341-44165-106628z" fill="#1da1f2" fill-rule="nonzero"/></svg>